PathFileType	4	(X/Y/Z)	D:\Share\Shared_Data\Ergonomics\Sit To Stand Pertubation\S0\Free STS.trc
DataRate	CameraRate	NumFrames	NumMarkers	Units	OrigDataRate	OrigDataStartFrame	OrigNumFrames	
100	100	19	18	m	100	2370	231
Frame#	Time	R_Toe			R_ASIS			R_Pelvis			V_Sacral			L_Pelvis			L_ASIS			Clavical			R_Acromium			L_Acromium			Sternum			Torso			R_Thigh_Med			R_Thigh_Lat			R_Thigh			R_Shank_Med			R_Shank_Lat			R_Shank			R_Heel			
		X1	Y1	Z1	X2	Y2	Z2	X3	Y3	Z3	X4	Y4	Z4	X5	Y5	Z5	X6	Y6	Z6	X7	Y7	Z7	X8	Y8	Z8	X9	Y9	Z9	X10	Y10	Z10	X11	Y11	Z11	X12	Y12	Z12	X13	Y13	Z13	X14	Y14	Z14	X15	Y15	Z15	X16	Y16	Z16	X17	Y17	Z17	X18	Y18	Z18	

2370	10.12	0.3778324	0.04646677	0.14370718	0.35282016	1.0126434	0.15057097	0.22888838	1.0271559	0.19211606	0.11002557	1.0272207	-0.037848717	0.25282228	1.0138521	-0.21789786	0.36865253	0.99774341	-0.17033249	0.35986859	1.4502112	-0.017613605	0.2702146	1.5047144	0.1266657	0.262526	1.5084818	-0.1685575	0.39969208	1.3602524	-0.035429935	0.36591696	1.4032412	-0.14218468	0.28951675	0.49180066	0.041756893	0.28415381	0.52043024	0.16728827	0.37078586	0.64768488	0.10139247	0.25045937	0.10038677	0.10303712	0.19210005	0.090339027	0.19102361	0.22934039	0.31998422	0.19641855	0.15326953	0.043892071	0.14972044
2371	10.13	0.37747491	0.046679417	0.14373685	0.35324396	1.0127687	0.15062814	0.22927711	1.0271025	0.19211823	0.11053448	1.026796	-0.038001972	0.25350803	1.0136554	-0.21798923	0.36931857	0.99781958	-0.17036559	0.35873761	1.450413	-0.017507704	0.26894836	1.504573	0.12684709	0.26109354	1.508292	-0.16844763	0.39885477	1.360589	-0.035342178	0.36493829	1.4034697	-0.14209425	0.28874985	0.49190997	0.041795891	0.2835191	0.52056769	0.16731984	0.37060373	0.64764795	0.10138988	0.25018141	0.10047917	0.10323871	0.19181918	0.09027494	0.19126341	0.22878021	0.32008734	0.19652789	0.1530639	0.043725941	0.1498752
2372	10.14	0.37710794	0.046896275	0.14371529	0.35362796	1.0128375	0.15064456	0.22965083	1.0270492	0.19210762	0.11099158	1.0264517	-0.038149639	0.25411893	1.0135042	-0.21810977	0.36988913	0.99784601	-0.17042029	0.35767728	1.4505925	-0.017403372	0.26775549	1.5044268	0.12702489	0.25972699	1.5081024	-0.16833261	0.39805823	1.3608885	-0.035259399	0.36400909	1.4036777	-0.14200807	0.28813461	0.49199161	0.041832867	0.28302551	0.5206723	0.16734346	0.3704675	0.64760205	0.10137545	0.24989529	0.10055496	0.103418	0.19154999	0.090214249	0.19149603	0.22832481	0.32016891	0.19662851	0.15286	0.043565453	0.15002165
2373	10.15	0.37674228	0.047111912	0.143646	0.35397195	1.0128538	0.15062317	0.23000612	1.0269977	0.19208426	0.11139603	1.0261855	-0.038287655	0.25465375	1.0134045	-0.21825427	0.37036444	0.99783276	-0.17049258	0.35669171	1.4507533	-0.0173004	0.26663931	1.5042856	0.1271968	0.25843939	1.5079219	-0.16821475	0.39730698	1.3611547	-0.035179489	0.3631348	1.4038672	-0.14192549	0.28767682	0.49204691	0.041862984	0.28267438	0.520745	0.16735715	0.37038712	0.64755231	0.10134747	0.24961653	0.10061475	0.10356934	0.19129982	0.090159233	0.19171237	0.22797215	0.32022885	0.19671519	0.1526617	0.043414364	0.15015593
2374	10.16	0.37639032	0.047319584	0.14353505	0.35427518	1.0128244	0.15056879	0.23033815	1.0269495	0.19205003	0.11174701	1.02599	-0.038411705	0.25510913	1.013356	-0.21841257	0.37074646	0.99779144	-0.17057831	0.35578412	1.450899	-0.017198656	0.265604	1.5041593	0.12736118	0.25724332	1.5077585	-0.16809641	0.39660406	1.361391	-0.035100689	0.36232068	1.4040403	-0.14184554	0.28737762	0.49207895	0.041881577	0.28246582	0.52078809	0.16735892	0.37036935	0.64750513	0.10130204	0.24935994	0.1006596	0.10368758	0.19107634	0.09011245	0.19190326	0.22772173	0.32026825	0.19678287	0.15247426	0.04327655	0.15027373
2375	10.17	0.37606497	0.047512009	0.14338989	0.35453754	1.0127601	0.15048753	0.23064186	1.0269043	0.19200754	0.11204411	1.0258542	-0.038517326	0.25548035	1.0133523	-0.21857173	0.37103928	0.99773401	-0.17067365	0.35495651	1.4510316	-0.017098118	0.26465381	1.5040554	0.12751672	0.25614975	1.507618	-0.16797945	0.39595111	1.3615999	-0.035021545	0.3615712	1.4041986	-0.14176668	0.28723453	0.49209171	0.0418853	0.28239774	0.52080432	0.16734634	0.37041791	0.64746729	0.1012346	0.24913702	0.10069063	0.10376932	0.19088629	0.090075859	0.19206116	0.2275744	0.32028882	0.19682744	0.15230373	0.043155342	0.15037117
2376	10.18	0.37577734	0.047682365	0.14321915	0.35476083	1.0126733	0.15038634	0.23091286	1.0268601	0.19195918	0.11228715	1.0257644	-0.03860051	0.25576311	1.0133823	-0.21871938	0.37124875	0.99767224	-0.17077577	0.35420938	1.4511526	-0.01699872	0.26379224	1.5039791	0.12766247	0.2551671	1.5075052	-0.16786511	0.39534854	1.3617833	-0.034940872	0.36088943	1.4043439	-0.14168698	0.28724149	0.49208881	0.041872341	0.28246542	0.52079688	0.16731664	0.37053406	0.6474447	0.10114197	0.24895503	0.10070885	0.10381337	0.19073575	0.090050095	0.19218123	0.22753117	0.32029263	0.19684608	0.15215552	0.043052891	0.15044577
2377	10.19	0.37553439	0.047825184	0.14303223	0.35494852	1.0125771	0.15027185	0.23114871	1.0268129	0.19190669	0.11247596	1.0257057	-0.038658676	0.25595493	1.0134331	-0.21884566	0.37138281	0.997617	-0.17088287	0.35354169	1.4512618	-0.016900167	0.26302164	1.5039323	0.12779802	0.25430026	1.5074219	-0.16775363	0.39479639	1.3619423	-0.034857807	0.36027716	1.4044763	-0.1416042	0.2873891	0.4920726	0.041842041	0.28266092	0.52076904	0.16726756	0.37071683	0.64744104	0.10102449	0.24881667	0.10071521	0.10382086	0.1906286	0.090034882	0.19226282	0.22759102	0.32028195	0.1968374	0.15203297	0.042969662	0.15049667
2378	10.2	0.37533853	0.047937164	0.14283905	0.35510565	1.0124828	0.15014992	0.23134911	1.0267568	0.1918508	0.11261037	1.0256635	-0.038691399	0.25605612	1.0134907	-0.21894431	0.37145026	0.99757703	-0.17099423	0.35295093	1.4513583	-0.016801924	0.26234293	1.5039135	0.12792395	0.25355051	1.5073665	-0.16764445	0.39429538	1.3620776	-0.034771816	0.35973422	1.4045956	-0.14151605	0.28766431	0.49204431	0.041794697	0.28297235	0.520724	0.16719826	0.37096292	0.64745538	0.10088699	0.24872079	0.10071043	0.10379477	0.19056442	0.0900299	0.19230998	0.22774861	0.32025912	0.19680151	0.15193665	0.042904713	0.15052475
2379	10.21	0.37518845	0.048017555	0.14264938	0.35523798	1.0123974	0.15002512	0.23151585	1.0266852	0.19179149	0.11269067	1.0256249	-0.038700691	0.25607013	1.013543	-0.21901276	0.37146057	0.99755835	-0.17111008	0.35243378	1.4514395	-0.016703299	0.26175607	1.5039188	0.12804164	0.25291559	1.5073361	-0.16753639	0.39384671	1.3621892	-0.034682812	0.35925861	1.4047003	-0.14142079	0.28805066	0.49200385	0.041731663	0.28338351	0.52066455	0.16710997	0.37126593	0.6474834	0.1007382	0.24866382	0.10069516	0.10373967	0.19053854	0.090034607	0.19232919	0.22799281	0.32022635	0.19674002	0.15186488	0.042856552	0.15053247
2380	10.22	0.3750809	0.048067482	0.14247229	0.35535141	1.0123243	0.14990074	0.23165199	1.0265912	0.19172821	0.11271859	1.0255803	-0.038690865	0.25600311	1.0135807	-0.21905241	0.37142371	0.99756421	-0.1712312	0.35198648	1.4515032	-0.016603565	0.26126031	1.5039419	0.12815295	0.25239032	1.5073253	-0.16742824	0.3934516	1.3622771	-0.034591248	0.35884717	1.4047877	-0.14131781	0.28852991	0.49195126	0.041655548	0.2838743	0.52059326	0.16700624	0.37161609	0.64751819	0.10058917	0.24864137	0.10066997	0.10366123	0.19054448	0.090047783	0.19232629	0.22830696	0.32018591	0.19665604	0.15181503	0.042823841	0.15052295
2381	10.23	0.37501254	0.048089077	0.14231589	0.35545108	1.0122626	0.14977907	0.23176118	1.0264688	0.19166028	0.11269847	1.0255226	-0.038667885	0.25586301	1.013598	-0.21906813	0.37135004	0.99759473	-0.17135849	0.35160574	1.4515468	-0.016502264	0.26085443	1.5039747	0.1282598	0.25196695	1.507328	-0.16731921	0.39310992	1.3623413	-0.034498154	0.35849667	1.4048553	-0.14120773	0.28908301	0.49188687	0.041570232	0.28442273	0.52051251	0.16689241	0.37200226	0.64755334	0.10045094	0.24864958	0.10063522	0.10356544	0.19057584	0.090067711	0.19230476	0.22867102	0.32013998	0.19655379	0.15178488	0.042805531	0.15049913
2382	10.24	0.37498105	0.048084816	0.14218692	0.35554086	1.0122083	0.14966156	0.23184714	1.0263137	0.19158749	0.11263781	1.0254481	-0.038638287	0.25565794	1.0135917	-0.21906644	0.37124994	0.99764752	-0.17149255	0.35128845	1.4515695	-0.016399628	0.2605361	1.5040087	0.12836388	0.25163585	1.5073374	-0.16720903	0.39282077	1.3623817	-0.034405087	0.35820389	1.4049012	-0.14109248	0.28969107	0.49181198	0.04148064	0.28500681	0.52042499	0.16677438	0.37241345	0.64758405	0.10033244	0.24868542	0.10059108	0.10345789	0.19062781	0.090092621	0.19226556	0.22906467	0.32009085	0.19643794	0.15177351	0.042801281	0.15046329
2383	10.25	0.37498526	0.048057053	0.14209079	0.35562396	1.0121561	0.14954945	0.23191365	1.0261256	0.19151064	0.11254703	1.0253555	-0.038607971	0.25539529	1.0135607	-0.21905415	0.37113348	0.99771802	-0.17163307	0.3510318	1.4515707	-0.016296759	0.26030206	1.5040356	0.12846654	0.25138652	1.5073469	-0.16709778	0.3925827	1.3623988	-0.034313934	0.35796545	1.4049244	-0.14097482	0.29033597	0.49172855	0.041392059	0.28560629	0.52033325	0.16665749	0.37283875	0.64760718	0.1002394	0.2487466	0.10053763	0.10334293	0.19069809	0.090120941	0.19220723	0.22946951	0.32004089	0.19631274	0.15178102	0.042811703	0.15041676
2384	10.26	0.37502502	0.048007633	0.14203127	0.35570267	1.0121015	0.14944392	0.23196518	1.0259076	0.19143196	0.11243861	1.0252463	-0.038581253	0.25508186	1.0135059	-0.21903676	0.37101038	0.99780078	-0.17177885	0.35083344	1.451551	-0.016195482	0.26014771	1.5040492	0.12856845	0.25120825	1.5073513	-0.16698576	0.39239392	1.3623932	-0.034226864	0.35777753	1.4049247	-0.14085812	0.29100085	0.49163922	0.041308853	0.28620285	0.52023926	0.16654549	0.37326715	0.64762018	0.10017371	0.24883141	0.10047496	0.10322365	0.19078658	0.090151382	0.1921265	0.22987021	0.31999243	0.1961814	0.15180835	0.042837872	0.15036002
2385	10.27	0.37510092	0.047938164	0.14200969	0.35577951	1.0120408	0.14934607	0.2320069	1.0256669	0.19135492	0.11232561	1.0251243	-0.038560421	0.25472501	1.0134299	-0.21901746	0.37088986	0.99788965	-0.17192781	0.35069144	1.4515121	-0.016098038	0.26006693	1.5040453	0.12866977	0.25109076	1.5073472	-0.16687358	0.39225223	1.3623662	-0.034146141	0.35763538	1.4049027	-0.14074588	0.29166907	0.49154703	0.041233212	0.28678024	0.52014429	0.16644012	0.37368945	0.6476214	0.10013378	0.24893863	0.10040347	0.10310167	0.19089357	0.090183464	0.19202074	0.23025475	0.31994742	0.19604633	0.15185657	0.042880764	0.15029298
2386	10.28	0.37521338	0.047850639	0.14202408	0.35585736	1.0119723	0.14925655	0.23204477	1.0254132	0.19128357	0.11221996	1.0249948	-0.038545734	0.25433562	1.0133367	-0.21899762	0.37078091	0.99797919	-0.17207721	0.35060376	1.4514557	-0.016006777	0.26005289	1.504022	0.12876996	0.25102455	1.5073331	-0.16676201	0.39215506	1.3623186	-0.034073921	0.35753381	1.4048597	-0.14064104	0.29232394	0.4914548	0.041164562	0.28732574	0.52004932	0.1663414	0.37409906	0.64760956	0.10011523	0.24906789	0.10032413	0.10297733	0.19101851	0.09021759	0.19188994	0.2306136	0.31990747	0.19590956	0.15192632	0.042941013	0.15021567
2387	10.29	0.37536276	0.047747215	0.14206882	0.35593951	1.0118959	0.1491754	0.23208542	1.0251588	0.19122183	0.11213084	1.0248641	-0.038535786	0.25393382	1.0132339	-0.218979	0.37069113	0.99806476	-0.17222404	0.35056668	1.4513838	-0.015923705	0.26009814	1.5039801	0.1288681	0.25100105	1.5073096	-0.16665215	0.39209857	1.3622518	-0.034012062	0.35746716	1.4047976	-0.14054579	0.29294855	0.49136499	0.04110001	0.28783127	0.51995532	0.16624762	0.37449109	0.64758429	0.10011129	0.24921921	0.10023864	0.10284982	0.19116005	0.090254364	0.19173677	0.23093974	0.31987363	0.19577322	0.15201732	0.043018417	0.1501283
2388	10.3	0.37554767	0.047630054	0.14213478	0.35602939	1.011812	0.14910211	0.23213576	1.0249153	0.19117259	0.11206413	1.0247405	-0.038528008	0.25355264	1.0131335	-0.21896603	0.37062634	0.99814227	-0.17236504	0.35057419	1.4512985	-0.015850032	0.26019525	1.5039224	0.12896321	0.25101289	1.5072777	-0.16654495	0.39207776	1.362167	-0.033961872	0.35742999	1.4047184	-0.1404613	0.29352625	0.49127969	0.041035358	0.28829337	0.51986365	0.16615604	0.37486115	0.64754578	0.10011308	0.24939221	0.10014934	0.10271758	0.19131673	0.090294159	0.19156473	0.23122855	0.31984695	0.19563921	0.15212836	0.043111614	0.15003091
